<svg width="238" height="122" viewBox="0 0 238 122" fill="none" xmlns="http://www.w3.org/2000/svg">
<path d="M23.5781 30.0547H10.0781V44H3.04688V9.875H25.2656V15.5703H10.0781V24.3828H23.5781V30.0547ZM36.0469 44H29.25V18.6406H36.0469V44ZM28.8516 12.0781C28.8516 11.0625 29.1875 10.2266 29.8594 9.57031C30.5469 8.91406 31.4766 8.58594 32.6484 8.58594C33.8047 8.58594 34.7266 8.91406 35.4141 9.57031C36.1016 10.2266 36.4453 11.0625 36.4453 12.0781C36.4453 13.1094 36.0938 13.9531 35.3906 14.6094C34.7031 15.2656 33.7891 15.5938 32.6484 15.5938C31.5078 15.5938 30.5859 15.2656 29.8828 14.6094C29.1953 13.9531 28.8516 13.1094 28.8516 12.0781ZM47.8828 18.6406L48.0938 21.5703C49.9062 19.3047 52.3359 18.1719 55.3828 18.1719C58.0703 18.1719 60.0703 18.9609 61.3828 20.5391C62.6953 22.1172 63.3672 24.4766 63.3984 27.6172V44H56.625V27.7812C56.625 26.3438 56.3125 25.3047 55.6875 24.6641C55.0625 24.0078 54.0234 23.6797 52.5703 23.6797C50.6641 23.6797 49.2344 24.4922 48.2812 26.1172V44H41.5078V18.6406H47.8828ZM67.5 31.1328C67.5 27.1797 68.3828 24.0312 70.1484 21.6875C71.9297 19.3438 74.3594 18.1719 77.4375 18.1719C79.9062 18.1719 81.9453 19.0938 83.5547 20.9375V8H90.3516V44H84.2344L83.9062 41.3047C82.2188 43.4141 80.0469 44.4688 77.3906 44.4688C74.4062 44.4688 72.0078 43.2969 70.1953 40.9531C68.3984 38.5938 67.5 35.3203 67.5 31.1328ZM74.2734 31.625C74.2734 34 74.6875 35.8203 75.5156 37.0859C76.3438 38.3516 77.5469 38.9844 79.125 38.9844C81.2188 38.9844 82.6953 38.1016 83.5547 36.3359V26.3281C82.7109 24.5625 81.25 23.6797 79.1719 23.6797C75.9062 23.6797 74.2734 26.3281 74.2734 31.625ZM102.75 44H95.9531V18.6406H102.75V44ZM95.5547 12.0781C95.5547 11.0625 95.8906 10.2266 96.5625 9.57031C97.25 8.91406 98.1797 8.58594 99.3516 8.58594C100.508 8.58594 101.43 8.91406 102.117 9.57031C102.805 10.2266 103.148 11.0625 103.148 12.0781C103.148 13.1094 102.797 13.9531 102.094 14.6094C101.406 15.2656 100.492 15.5938 99.3516 15.5938C98.2109 15.5938 97.2891 15.2656 96.5859 14.6094C95.8984 13.9531 95.5547 13.1094 95.5547 12.0781ZM114.586 18.6406L114.797 21.5703C116.609 19.3047 119.039 18.1719 122.086 18.1719C124.773 18.1719 126.773 18.9609 128.086 20.5391C129.398 22.1172 130.07 24.4766 130.102 27.6172V44H123.328V27.7812C123.328 26.3438 123.016 25.3047 122.391 24.6641C121.766 24.0078 120.727 23.6797 119.273 23.6797C117.367 23.6797 115.938 24.4922 114.984 26.1172V44H108.211V18.6406H114.586ZM134.273 31.1328C134.273 27.2422 135.195 24.1094 137.039 21.7344C138.898 19.3594 141.398 18.1719 144.539 18.1719C147.32 18.1719 149.484 19.125 151.031 21.0312L151.312 18.6406H157.453V43.1562C157.453 45.375 156.945 47.3047 155.93 48.9453C154.93 50.5859 153.516 51.8359 151.688 52.6953C149.859 53.5547 147.719 53.9844 145.266 53.9844C143.406 53.9844 141.594 53.6094 139.828 52.8594C138.062 52.125 136.727 51.1719 135.82 50L138.82 45.875C140.508 47.7656 142.555 48.7109 144.961 48.7109C146.758 48.7109 148.156 48.2266 149.156 47.2578C150.156 46.3047 150.656 44.9453 150.656 43.1797V41.8203C149.094 43.5859 147.039 44.4688 144.492 44.4688C141.445 44.4688 138.977 43.2812 137.086 40.9062C135.211 38.5156 134.273 35.3516 134.273 31.4141V31.1328ZM141.047 31.625C141.047 33.9219 141.508 35.7266 142.43 37.0391C143.352 38.3359 144.617 38.9844 146.227 38.9844C148.289 38.9844 149.766 38.2109 150.656 36.6641V26C149.75 24.4531 148.289 23.6797 146.273 23.6797C144.648 23.6797 143.367 24.3438 142.43 25.6719C141.508 27 141.047 28.9844 141.047 31.625Z" fill="black"/>
<path d="M53.5234 88H46.4922V53.875H53.5234V88ZM65.9688 62.6406L66.1797 65.4766C67.9766 63.2734 70.4062 62.1719 73.4688 62.1719C76.7344 62.1719 78.9766 63.4609 80.1953 66.0391C81.9766 63.4609 84.5156 62.1719 87.8125 62.1719C90.5625 62.1719 92.6094 62.9766 93.9531 64.5859C95.2969 66.1797 95.9688 68.5859 95.9688 71.8047V88H89.1719V71.8281C89.1719 70.3906 88.8906 69.3438 88.3281 68.6875C87.7656 68.0156 86.7734 67.6797 85.3516 67.6797C83.3203 67.6797 81.9141 68.6484 81.1328 70.5859L81.1562 88H74.3828V71.8516C74.3828 70.3828 74.0938 69.3203 73.5156 68.6641C72.9375 68.0078 71.9531 67.6797 70.5625 67.6797C68.6406 67.6797 67.25 68.4766 66.3906 70.0703V88H59.6172V62.6406H65.9688ZM124.023 75.5547C124.023 79.4609 123.133 82.5938 121.352 84.9531C119.586 87.2969 117.195 88.4688 114.18 88.4688C111.617 88.4688 109.547 87.5781 107.969 85.7969V97.75H101.195V62.6406H107.477L107.711 65.125C109.352 63.1562 111.492 62.1719 114.133 62.1719C117.258 62.1719 119.688 63.3281 121.422 65.6406C123.156 67.9531 124.023 71.1406 124.023 75.2031V75.5547ZM117.25 75.0625C117.25 72.7031 116.828 70.8828 115.984 69.6016C115.156 68.3203 113.945 67.6797 112.352 67.6797C110.227 67.6797 108.766 68.4922 107.969 70.1172V80.5C108.797 82.1719 110.273 83.0078 112.398 83.0078C115.633 83.0078 117.25 80.3594 117.25 75.0625ZM127.188 75.0859C127.188 72.5703 127.672 70.3281 128.641 68.3594C129.609 66.3906 131 64.8672 132.812 63.7891C134.641 62.7109 136.758 62.1719 139.164 62.1719C142.586 62.1719 145.375 63.2188 147.531 65.3125C149.703 67.4062 150.914 70.25 151.164 73.8438L151.211 75.5781C151.211 79.4688 150.125 82.5938 147.953 84.9531C145.781 87.2969 142.867 88.4688 139.211 88.4688C135.555 88.4688 132.633 87.2969 130.445 84.9531C128.273 82.6094 127.188 79.4219 127.188 75.3906V75.0859ZM133.961 75.5781C133.961 77.9844 134.414 79.8281 135.32 81.1094C136.227 82.375 137.523 83.0078 139.211 83.0078C140.852 83.0078 142.133 82.3828 143.055 81.1328C143.977 79.8672 144.438 77.8516 144.438 75.0859C144.438 72.7266 143.977 70.8984 143.055 69.6016C142.133 68.3047 140.836 67.6562 139.164 67.6562C137.508 67.6562 136.227 68.3047 135.32 69.6016C134.414 70.8828 133.961 72.875 133.961 75.5781ZM169.117 80.9922C169.117 80.1641 168.703 79.5156 167.875 79.0469C167.062 78.5625 165.75 78.1328 163.938 77.7578C157.906 76.4922 154.891 73.9297 154.891 70.0703C154.891 67.8203 155.82 65.9453 157.68 64.4453C159.555 62.9297 162 62.1719 165.016 62.1719C168.234 62.1719 170.805 62.9297 172.727 64.4453C174.664 65.9609 175.633 67.9297 175.633 70.3516H168.859C168.859 69.3828 168.547 68.5859 167.922 67.9609C167.297 67.3203 166.32 67 164.992 67C163.852 67 162.969 67.2578 162.344 67.7734C161.719 68.2891 161.406 68.9453 161.406 69.7422C161.406 70.4922 161.758 71.1016 162.461 71.5703C163.18 72.0234 164.383 72.4219 166.07 72.7656C167.758 73.0938 169.18 73.4688 170.336 73.8906C173.914 75.2031 175.703 77.4766 175.703 80.7109C175.703 83.0234 174.711 84.8984 172.727 86.3359C170.742 87.7578 168.18 88.4688 165.039 88.4688C162.914 88.4688 161.023 88.0938 159.367 87.3438C157.727 86.5781 156.438 85.5391 155.5 84.2266C154.562 82.8984 154.094 81.4688 154.094 79.9375H160.516C160.578 81.1406 161.023 82.0625 161.852 82.7031C162.68 83.3438 163.789 83.6641 165.18 83.6641C166.477 83.6641 167.453 83.4219 168.109 82.9375C168.781 82.4375 169.117 81.7891 169.117 80.9922ZM188.195 56.4062V62.6406H192.531V67.6094H188.195V80.2656C188.195 81.2031 188.375 81.875 188.734 82.2812C189.094 82.6875 189.781 82.8906 190.797 82.8906C191.547 82.8906 192.211 82.8359 192.789 82.7266V87.8594C191.461 88.2656 190.094 88.4688 188.688 88.4688C183.938 88.4688 181.516 86.0703 181.422 81.2734V67.6094H177.719V62.6406H181.422V56.4062H188.195ZM207.977 88.4688C204.258 88.4688 201.227 87.3281 198.883 85.0469C196.555 82.7656 195.391 79.7266 195.391 75.9297V75.2734C195.391 72.7266 195.883 70.4531 196.867 68.4531C197.852 66.4375 199.242 64.8906 201.039 63.8125C202.852 62.7188 204.914 62.1719 207.227 62.1719C210.695 62.1719 213.422 63.2656 215.406 65.4531C217.406 67.6406 218.406 70.7422 218.406 74.7578V77.5234H202.258C202.477 79.1797 203.133 80.5078 204.227 81.5078C205.336 82.5078 206.734 83.0078 208.422 83.0078C211.031 83.0078 213.07 82.0625 214.539 80.1719L217.867 83.8984C216.852 85.3359 215.477 86.4609 213.742 87.2734C212.008 88.0703 210.086 88.4688 207.977 88.4688ZM207.203 67.6562C205.859 67.6562 204.766 68.1094 203.922 69.0156C203.094 69.9219 202.562 71.2188 202.328 72.9062H211.75V72.3672C211.719 70.8672 211.312 69.7109 210.531 68.8984C209.75 68.0703 208.641 67.6562 207.203 67.6562ZM236.523 68.9922C235.602 68.8672 234.789 68.8047 234.086 68.8047C231.523 68.8047 229.844 69.6719 229.047 71.4062V88H222.273V62.6406H228.672L228.859 65.6641C230.219 63.3359 232.102 62.1719 234.508 62.1719C235.258 62.1719 235.961 62.2734 236.617 62.4766L236.523 68.9922Z" fill="black"/>
<path d="M83.1016 113.758H79.2891V112.578H83.1016V113.758ZM88.7109 118V106.625H91.9219C92.9115 106.625 93.7865 106.844 94.5469 107.281C95.3073 107.719 95.8932 108.341 96.3047 109.148C96.7214 109.956 96.9323 110.883 96.9375 111.93V112.656C96.9375 113.729 96.7292 114.669 96.3125 115.477C95.901 116.284 95.3099 116.904 94.5391 117.336C93.7734 117.768 92.8802 117.99 91.8594 118H88.7109ZM90.2109 107.859V116.773H91.7891C92.9453 116.773 93.8438 116.414 94.4844 115.695C95.1302 114.977 95.4531 113.953 95.4531 112.625V111.961C95.4531 110.669 95.1484 109.667 94.5391 108.953C93.9349 108.234 93.0755 107.87 91.9609 107.859H90.2109ZM107.961 112.68C107.961 113.794 107.773 114.768 107.398 115.602C107.023 116.43 106.492 117.062 105.805 117.5C105.117 117.938 104.315 118.156 103.398 118.156C102.503 118.156 101.708 117.938 101.016 117.5C100.323 117.057 99.7839 116.43 99.3984 115.617C99.0182 114.799 98.8229 113.854 98.8125 112.781V111.961C98.8125 110.867 99.0026 109.901 99.3828 109.062C99.763 108.224 100.299 107.583 100.992 107.141C101.69 106.693 102.487 106.469 103.383 106.469C104.294 106.469 105.096 106.69 105.789 107.133C106.487 107.57 107.023 108.208 107.398 109.047C107.773 109.88 107.961 110.852 107.961 111.961V112.68ZM106.469 111.945C106.469 110.596 106.198 109.562 105.656 108.844C105.115 108.12 104.357 107.758 103.383 107.758C102.435 107.758 101.688 108.12 101.141 108.844C100.599 109.562 100.32 110.562 100.305 111.844V112.68C100.305 113.987 100.578 115.016 101.125 115.766C101.677 116.51 102.435 116.883 103.398 116.883C104.367 116.883 105.117 116.531 105.648 115.828C106.18 115.12 106.453 114.107 106.469 112.789V111.945ZM118.578 114.391C118.438 115.594 117.992 116.523 117.242 117.18C116.497 117.831 115.505 118.156 114.266 118.156C112.922 118.156 111.844 117.674 111.031 116.711C110.224 115.747 109.82 114.458 109.82 112.844V111.75C109.82 110.693 110.008 109.763 110.383 108.961C110.763 108.159 111.299 107.544 111.992 107.117C112.685 106.685 113.487 106.469 114.398 106.469C115.607 106.469 116.576 106.807 117.305 107.484C118.034 108.156 118.458 109.089 118.578 110.281H117.07C116.94 109.375 116.656 108.719 116.219 108.312C115.786 107.906 115.18 107.703 114.398 107.703C113.44 107.703 112.688 108.057 112.141 108.766C111.599 109.474 111.328 110.482 111.328 111.789V112.891C111.328 114.125 111.586 115.107 112.102 115.836C112.617 116.565 113.339 116.93 114.266 116.93C115.099 116.93 115.737 116.742 116.18 116.367C116.628 115.987 116.924 115.328 117.07 114.391H118.578ZM128.258 107.859H124.602V118H123.109V107.859H119.461V106.625H128.258V107.859ZM138.477 112.68C138.477 113.794 138.289 114.768 137.914 115.602C137.539 116.43 137.008 117.062 136.32 117.5C135.633 117.938 134.831 118.156 133.914 118.156C133.018 118.156 132.224 117.938 131.531 117.5C130.839 117.057 130.299 116.43 129.914 115.617C129.534 114.799 129.339 113.854 129.328 112.781V111.961C129.328 110.867 129.518 109.901 129.898 109.062C130.279 108.224 130.815 107.583 131.508 107.141C132.206 106.693 133.003 106.469 133.898 106.469C134.81 106.469 135.612 106.69 136.305 107.133C137.003 107.57 137.539 108.208 137.914 109.047C138.289 109.88 138.477 110.852 138.477 111.961V112.68ZM136.984 111.945C136.984 110.596 136.714 109.562 136.172 108.844C135.63 108.12 134.872 107.758 133.898 107.758C132.951 107.758 132.203 108.12 131.656 108.844C131.115 109.562 130.836 110.562 130.82 111.844V112.68C130.82 113.987 131.094 115.016 131.641 115.766C132.193 116.51 132.951 116.883 133.914 116.883C134.883 116.883 135.633 116.531 136.164 115.828C136.695 115.12 136.969 114.107 136.984 112.789V111.945ZM144.898 113.398H142.227V118H140.719V106.625H144.484C145.766 106.625 146.75 106.917 147.438 107.5C148.13 108.083 148.477 108.932 148.477 110.047C148.477 110.755 148.284 111.372 147.898 111.898C147.518 112.424 146.987 112.818 146.305 113.078L148.977 117.906V118H147.367L144.898 113.398ZM142.227 112.172H144.531C145.276 112.172 145.867 111.979 146.305 111.594C146.747 111.208 146.969 110.693 146.969 110.047C146.969 109.344 146.758 108.805 146.336 108.43C145.919 108.055 145.315 107.865 144.523 107.859H142.227V112.172ZM157.336 113.758H153.523V112.578H157.336V113.758Z" fill="#898989"/>
</svg>
